# xmcd CD database file
#
# Track frame offsets:
#	150
#	17530
#	37795
#	52670
#	70170
#	91802
#	106500
#	134170
#	156850
#	171782
#	190167
#	214810
#	230120
#	250940
#
# Disc length: 3579 seconds
#
# Revision: 0
# Processed by: cddbd v1.5.1PL2 Copyright (c) Steve Scherf et al.
# Submitted via: CDex 1.50
#
DISCID=b00df90e
DTITLE=Piltch and Davis - Calling You
DYEAR=1900
DGENRE=Jazz
TTITLE0=Calling You
TTITLE1=Ring Them Bells
TTITLE2=The Loon
TTITLE3=Newsoundland
TTITLE4=Ruwenzori
TTITLE5=Black is The Colour of My True Love's Hair
TTITLE6=Horizontal blue
TTITLE7=Arpeggio
TTITLE8=My Old Friend The Blue
TTITLE9=Dissfunktion
TTITLE10=Dance from Down Under
TTITLE11=Last Day of Summer
TTITLE12=Taj
TTITLE13=Calling You 
EXTD=
EXTT0=
EXTT1=
EXTT2=
EXTT3=
EXTT4=
EXTT5=
EXTT6=
EXTT7=
EXTT8=
EXTT9=
EXTT10=
EXTT11=
EXTT12=
EXTT13=
PLAYORDER=
